<?xml version="1.0" standalone="no"?>
<!DOCTYPE svg PUBLIC "-//W3C//DTD SVG 20010904//EN"
 "http://www.w3.org/TR/2001/REC-SVG-20010904/DTD/svg10.dtd">
<svg version="1.0" xmlns="http://www.w3.org/2000/svg"
 width="716.000000pt" height="1280.000000pt" viewBox="0 0 716.000000 1280.000000"
 preserveAspectRatio="xMidYMid meet">
<g transform="translate(0.000000,1280.000000) scale(0.100000,-0.100000)"
fill="#000000" stroke="none">
<path d="M3330 12794 c-225 -19 -314 -28 -430 -45 -786 -117 -1252 -381 -1470
-833 -119 -247 -151 -425 -170 -936 -5 -157 -15 -355 -21 -440 -13 -198 -46
-441 -62 -457 -3 -3 -53 4 -111 16 -213 43 -423 37 -605 -15 -153 -45 -235
-106 -330 -248 -148 -219 -170 -427 -66 -625 90 -170 393 -450 638 -590 156
-88 270 -131 632 -237 365 -106 383 -111 588 -138 843 -114 1188 -140 1817
-139 469 0 669 11 1035 58 991 126 1570 301 1954 590 219 166 357 358 412 575
47 184 3 337 -150 516 -206 243 -519 347 -865 288 -50 -8 -116 -14 -146 -12
l-55 3 -6 45 c-4 25 -12 140 -18 255 -6 116 -18 334 -26 485 -34 625 -101 921
-267 1176 -65 100 -230 265 -328 329 -276 180 -694 307 -1185 360 -131 15
-663 28 -765 19z"/>
<path d="M1420 7630 c-193 -19 -375 -50 -810 -139 -107 -22 -219 -43 -247 -47
-29 -3 -58 -13 -64 -20 -7 -9 -10 -59 -7 -151 4 -171 16 -199 125 -315 98
-105 122 -150 168 -317 60 -219 184 -550 269 -720 110 -218 323 -347 705 -428
116 -25 145 -27 361 -27 186 0 256 3 335 18 363 67 602 231 830 571 87 130
175 309 214 437 18 57 44 140 57 184 31 100 77 173 124 196 52 26 239 25 297
-1 75 -35 115 -102 203 -351 201 -567 431 -825 869 -970 325 -108 633 -115
956 -22 320 93 527 256 660 522 49 100 81 195 165 495 70 252 127 384 185 431
20 16 52 43 71 61 l35 32 -3 162 c-3 160 -3 162 -28 180 -14 11 -61 26 -105
33 -44 8 -154 33 -245 55 -185 45 -365 80 -580 112 -120 19 -189 23 -405 23
-302 1 -354 -6 -925 -110 -902 -165 -1091 -170 -1745 -39 -400 80 -594 110
-885 134 -176 15 -474 21 -580 11z m955 -156 c194 -28 394 -85 540 -154 176
-82 269 -184 301 -327 15 -67 15 -89 5 -168 -16 -125 -78 -301 -170 -490 -98
-200 -163 -298 -266 -400 -165 -164 -365 -265 -615 -311 -146 -27 -440 -25
-586 4 -183 37 -286 77 -400 158 -122 86 -195 189 -268 375 -111 284 -163 552
-154 794 4 110 8 129 35 187 54 116 124 174 274 229 178 65 415 97 909 123
102 5 285 -4 395 -20z m3267 0 c337 -33 561 -89 685 -170 100 -67 153 -149
174 -269 36 -207 -64 -712 -194 -975 -44 -91 -63 -117 -142 -196 -132 -133
-263 -193 -518 -240 -142 -27 -419 -25 -564 4 -278 55 -446 143 -617 322 -177
185 -348 519 -411 803 -25 113 -18 243 17 319 67 145 226 251 493 328 322 93
654 116 1077 74z"/>
<path d="M2950 4925 c-171 -36 -355 -130 -550 -280 -30 -23 -145 -118 -255
-210 -242 -202 -333 -267 -486 -345 -164 -84 -281 -122 -396 -128 -115 -6
-164 10 -222 73 -69 75 -93 209 -48 276 31 46 84 73 180 94 101 21 162 47 176
74 10 17 7 23 -13 36 -122 80 -315 71 -447 -21 -102 -70 -201 -215 -234 -340
-17 -66 -19 -178 -5 -242 17 -74 71 -171 132 -237 334 -364 1279 -519 2125
-350 230 47 362 99 508 205 108 78 158 101 227 107 56 6 59 5 130 -44 221
-152 534 -254 953 -310 166 -22 690 -25 835 -5 323 45 580 119 757 218 419
234 486 636 158 942 -171 159 -363 189 -469 71 -20 -21 -36 -43 -36 -49 0 -18
56 -38 178 -63 139 -29 183 -53 202 -113 29 -88 -24 -186 -147 -270 -83 -57
-151 -72 -246 -56 -148 26 -232 80 -757 491 -371 289 -561 398 -807 462 -72
19 -114 23 -233 23 -172 0 -265 -19 -429 -89 -57 -25 -109 -45 -116 -45 -7 0
-55 20 -106 44 -141 67 -222 87 -369 92 -83 2 -147 -1 -190 -11z"/>
<path d="M1683 2540 c-153 -88 -282 -430 -329 -871 -20 -191 -14 -682 10 -850
52 -363 143 -615 266 -740 77 -77 110 -85 290 -70 288 24 481 102 661 268 34
32 124 135 199 228 140 175 203 238 277 282 l43 25 30 -26 c17 -14 45 -28 63
-31 18 -3 208 -5 424 -3 l392 3 28 28 c35 32 42 33 93 7 63 -32 165 -134 285
-285 183 -229 284 -318 450 -396 176 -82 478 -132 600 -98 60 17 161 125 208
221 196 406 245 1199 110 1773 -69 293 -170 487 -284 545 -77 40 -326 22 -511
-36 -226 -72 -355 -171 -573 -444 -72 -91 -156 -187 -185 -213 -50 -45 -117
-87 -139 -87 -5 0 -15 19 -23 43 -24 78 -21 78 -496 75 l-414 -3 -29 -33 c-16
-18 -29 -41 -29 -52 0 -31 -14 -31 -65 1 -67 42 -134 113 -251 264 -166 214
-277 316 -424 390 -141 71 -340 115 -519 115 -99 0 -109 -2 -158 -30z"/>
</g>
</svg>
